<mxfile host="app.diagrams.net" agent="Mozilla/5.0 (Windows NT 10.0; Win64; x64) AppleWebKit/537.36 (KHTML, like Gecko) Chrome/138.0.0.0 Safari/537.36" version="28.2.0">
  <diagram name="Page-1" id="e5foXj5X1ig70cjcZSmE">
    <mxGraphModel dx="1747" dy="2102" grid="1" gridSize="10" guides="1" tooltips="1" connect="1" arrows="1" fold="1" page="1" pageScale="1" pageWidth="850" pageHeight="1100" math="0" shadow="0">
      <root>
        <mxCell id="0" />
        <mxCell id="1" parent="0" />
        <mxCell id="w8qs9DBUS7TFqiF7ya6J-3" value="&lt;font size=&quot;3&quot;&gt;START&lt;/font&gt;" style="ellipse;whiteSpace=wrap;html=1;fillColor=#dae8fc;strokeColor=#6c8ebf;" vertex="1" parent="1">
          <mxGeometry x="340" y="-110" width="120" height="70" as="geometry" />
        </mxCell>
        <mxCell id="w8qs9DBUS7TFqiF7ya6J-5" value="&lt;font size=&quot;3&quot;&gt;GROCIREIES&lt;/font&gt;" style="shape=parallelogram;perimeter=parallelogramPerimeter;whiteSpace=wrap;html=1;fixedSize=1;fillColor=#f5f5f5;fontColor=#333333;strokeColor=#666666;" vertex="1" parent="1">
          <mxGeometry x="100" y="320" width="160" height="60" as="geometry" />
        </mxCell>
        <mxCell id="w8qs9DBUS7TFqiF7ya6J-6" value="&lt;font size=&quot;3&quot;&gt;FOOD&lt;/font&gt;" style="shape=parallelogram;perimeter=parallelogramPerimeter;whiteSpace=wrap;html=1;fixedSize=1;fillColor=#f5f5f5;fontColor=#333333;strokeColor=#666666;" vertex="1" parent="1">
          <mxGeometry x="300" y="320" width="170" height="60" as="geometry" />
        </mxCell>
        <mxCell id="w8qs9DBUS7TFqiF7ya6J-7" value="&lt;font size=&quot;3&quot;&gt;ESSENTIALS&lt;/font&gt;" style="shape=parallelogram;perimeter=parallelogramPerimeter;whiteSpace=wrap;html=1;fixedSize=1;fillColor=#f5f5f5;fontColor=#333333;strokeColor=#666666;" vertex="1" parent="1">
          <mxGeometry x="520" y="320" width="170" height="60" as="geometry" />
        </mxCell>
        <mxCell id="w8qs9DBUS7TFqiF7ya6J-11" value="&lt;font size=&quot;3&quot;&gt;STOP&lt;/font&gt;" style="ellipse;whiteSpace=wrap;html=1;fillColor=#ffe6cc;strokeColor=#d79b00;" vertex="1" parent="1">
          <mxGeometry x="325" y="1000" width="120" height="80" as="geometry" />
        </mxCell>
        <mxCell id="w8qs9DBUS7TFqiF7ya6J-12" value="Actor" style="shape=umlActor;verticalLabelPosition=bottom;verticalAlign=top;html=1;outlineConnect=0;fillColor=#fff2cc;strokeColor=#d6b656;" vertex="1" parent="1">
          <mxGeometry x="355" y="710" width="60" height="90" as="geometry" />
        </mxCell>
        <mxCell id="w8qs9DBUS7TFqiF7ya6J-13" value="REVIEW" style="shape=internalStorage;whiteSpace=wrap;html=1;backgroundOutline=1;fillColor=#d80073;strokeColor=#A50040;fontColor=#ffffff;" vertex="1" parent="1">
          <mxGeometry x="330" y="880" width="110" height="80" as="geometry" />
        </mxCell>
        <mxCell id="w8qs9DBUS7TFqiF7ya6J-14" value="DELIVERY&amp;nbsp;&lt;div&gt;PARTNER&lt;/div&gt;" style="text;html=1;align=center;verticalAlign=middle;whiteSpace=wrap;rounded=0;" vertex="1" parent="1">
          <mxGeometry x="410" y="720" width="60" height="30" as="geometry" />
        </mxCell>
        <mxCell id="w8qs9DBUS7TFqiF7ya6J-15" value="&lt;font size=&quot;3&quot;&gt;WELCOME TO&amp;nbsp;&lt;/font&gt;&lt;div&gt;&lt;font size=&quot;3&quot;&gt;SWIGGY&lt;/font&gt;&lt;/div&gt;" style="rounded=0;whiteSpace=wrap;html=1;fillColor=#f8cecc;strokeColor=#b85450;" vertex="1" parent="1">
          <mxGeometry x="340" y="40" width="120" height="60" as="geometry" />
        </mxCell>
        <mxCell id="w8qs9DBUS7TFqiF7ya6J-17" value="" style="endArrow=classic;html=1;rounded=0;entryX=0.5;entryY=0;entryDx=0;entryDy=0;entryPerimeter=0;" edge="1" parent="1" target="w8qs9DBUS7TFqiF7ya6J-15">
          <mxGeometry width="50" height="50" relative="1" as="geometry">
            <mxPoint x="400" y="-40" as="sourcePoint" />
            <mxPoint x="450" y="-90" as="targetPoint" />
          </mxGeometry>
        </mxCell>
        <mxCell id="w8qs9DBUS7TFqiF7ya6J-18" value="" style="endArrow=classic;html=1;rounded=0;" edge="1" parent="1">
          <mxGeometry width="50" height="50" relative="1" as="geometry">
            <mxPoint x="400" y="95" as="sourcePoint" />
            <mxPoint x="400" y="160" as="targetPoint" />
          </mxGeometry>
        </mxCell>
        <mxCell id="w8qs9DBUS7TFqiF7ya6J-19" value="" style="endArrow=classic;html=1;rounded=0;" edge="1" parent="1" source="w8qs9DBUS7TFqiF7ya6J-4">
          <mxGeometry width="50" height="50" relative="1" as="geometry">
            <mxPoint x="390" y="280" as="sourcePoint" />
            <mxPoint x="440" y="230" as="targetPoint" />
          </mxGeometry>
        </mxCell>
        <mxCell id="w8qs9DBUS7TFqiF7ya6J-4" value="WHICH ITEM&amp;nbsp;&lt;div&gt;NEEDS TO BE&lt;/div&gt;&lt;div&gt;SEARCHED&lt;/div&gt;" style="rhombus;whiteSpace=wrap;html=1;fillColor=#ffe6cc;strokeColor=#d79b00;" vertex="1" parent="1">
          <mxGeometry x="340" y="160" width="120" height="120" as="geometry" />
        </mxCell>
        <mxCell id="w8qs9DBUS7TFqiF7ya6J-21" value="" style="endArrow=classic;html=1;rounded=0;entryX=0.588;entryY=0;entryDx=0;entryDy=0;entryPerimeter=0;" edge="1" parent="1" target="w8qs9DBUS7TFqiF7ya6J-6">
          <mxGeometry width="50" height="50" relative="1" as="geometry">
            <mxPoint x="400" y="280" as="sourcePoint" />
            <mxPoint x="450" y="230" as="targetPoint" />
          </mxGeometry>
        </mxCell>
        <mxCell id="w8qs9DBUS7TFqiF7ya6J-22" value="" style="endArrow=classic;html=1;rounded=0;entryX=0.625;entryY=0;entryDx=0;entryDy=0;entryPerimeter=0;" edge="1" parent="1" target="w8qs9DBUS7TFqiF7ya6J-5">
          <mxGeometry width="50" height="50" relative="1" as="geometry">
            <mxPoint x="340" y="220" as="sourcePoint" />
            <mxPoint x="210" y="310" as="targetPoint" />
          </mxGeometry>
        </mxCell>
        <mxCell id="w8qs9DBUS7TFqiF7ya6J-23" value="" style="endArrow=classic;html=1;rounded=0;entryX=0.529;entryY=0;entryDx=0;entryDy=0;entryPerimeter=0;" edge="1" parent="1" target="w8qs9DBUS7TFqiF7ya6J-7">
          <mxGeometry width="50" height="50" relative="1" as="geometry">
            <mxPoint x="460" y="220" as="sourcePoint" />
            <mxPoint x="510" y="170" as="targetPoint" />
          </mxGeometry>
        </mxCell>
        <mxCell id="w8qs9DBUS7TFqiF7ya6J-24" value="" style="endArrow=classic;html=1;rounded=0;entryX=0;entryY=0.5;entryDx=0;entryDy=0;entryPerimeter=0;" edge="1" parent="1" target="w8qs9DBUS7TFqiF7ya6J-8">
          <mxGeometry width="50" height="50" relative="1" as="geometry">
            <mxPoint x="180" y="380" as="sourcePoint" />
            <mxPoint x="260" y="310" as="targetPoint" />
          </mxGeometry>
        </mxCell>
        <mxCell id="w8qs9DBUS7TFqiF7ya6J-25" value="" style="endArrow=classic;html=1;rounded=0;entryX=0.467;entryY=0;entryDx=0;entryDy=0;entryPerimeter=0;" edge="1" parent="1" target="w8qs9DBUS7TFqiF7ya6J-8">
          <mxGeometry width="50" height="50" relative="1" as="geometry">
            <mxPoint x="380" y="380" as="sourcePoint" />
            <mxPoint x="430" y="330" as="targetPoint" />
          </mxGeometry>
        </mxCell>
        <mxCell id="w8qs9DBUS7TFqiF7ya6J-26" value="" style="endArrow=classic;html=1;rounded=0;entryX=1;entryY=0.5;entryDx=0;entryDy=0;entryPerimeter=0;" edge="1" parent="1" target="w8qs9DBUS7TFqiF7ya6J-8">
          <mxGeometry width="50" height="50" relative="1" as="geometry">
            <mxPoint x="590" y="380" as="sourcePoint" />
            <mxPoint x="470" y="480" as="targetPoint" />
          </mxGeometry>
        </mxCell>
        <mxCell id="w8qs9DBUS7TFqiF7ya6J-27" value="" style="endArrow=classic;html=1;rounded=0;" edge="1" parent="1" source="w8qs9DBUS7TFqiF7ya6J-8">
          <mxGeometry width="50" height="50" relative="1" as="geometry">
            <mxPoint x="400" y="520" as="sourcePoint" />
            <mxPoint x="450" y="470" as="targetPoint" />
          </mxGeometry>
        </mxCell>
        <mxCell id="w8qs9DBUS7TFqiF7ya6J-28" value="" style="endArrow=classic;html=1;rounded=0;" edge="1" parent="1" target="w8qs9DBUS7TFqiF7ya6J-8">
          <mxGeometry width="50" height="50" relative="1" as="geometry">
            <mxPoint x="400" y="520" as="sourcePoint" />
            <mxPoint x="450" y="470" as="targetPoint" />
          </mxGeometry>
        </mxCell>
        <mxCell id="w8qs9DBUS7TFqiF7ya6J-8" value="&lt;font size=&quot;3&quot;&gt;CONFIRM&amp;nbsp;&lt;/font&gt;&lt;div&gt;&lt;font size=&quot;3&quot;&gt;YOUR&lt;/font&gt;&lt;/div&gt;&lt;div&gt;&lt;font size=&quot;3&quot;&gt;ORDER&lt;/font&gt;&lt;/div&gt;" style="rhombus;whiteSpace=wrap;html=1;fillColor=#f8cecc;strokeColor=#b85450;" vertex="1" parent="1">
          <mxGeometry x="315" y="430" width="150" height="120" as="geometry" />
        </mxCell>
        <mxCell id="w8qs9DBUS7TFqiF7ya6J-33" value="" style="endArrow=classic;html=1;rounded=0;entryX=0.5;entryY=1.417;entryDx=0;entryDy=0;entryPerimeter=0;" edge="1" parent="1" source="w8qs9DBUS7TFqiF7ya6J-9" target="w8qs9DBUS7TFqiF7ya6J-8">
          <mxGeometry width="50" height="50" relative="1" as="geometry">
            <mxPoint x="390" y="550" as="sourcePoint" />
            <mxPoint x="440" y="500" as="targetPoint" />
          </mxGeometry>
        </mxCell>
        <mxCell id="w8qs9DBUS7TFqiF7ya6J-35" value="" style="endArrow=classic;html=1;rounded=0;" edge="1" parent="1">
          <mxGeometry width="50" height="50" relative="1" as="geometry">
            <mxPoint x="390" y="550" as="sourcePoint" />
            <mxPoint x="390" y="710" as="targetPoint" />
          </mxGeometry>
        </mxCell>
        <mxCell id="w8qs9DBUS7TFqiF7ya6J-9" value="&lt;font size=&quot;3&quot;&gt;ENTER YOUR&amp;nbsp;&lt;/font&gt;&lt;div&gt;&lt;font size=&quot;3&quot;&gt;ADDRESS AND&lt;/font&gt;&lt;/div&gt;&lt;div&gt;&lt;font size=&quot;3&quot;&gt;DETAILS&lt;/font&gt;&lt;/div&gt;" style="shape=parallelogram;perimeter=parallelogramPerimeter;whiteSpace=wrap;html=1;fixedSize=1;fillColor=#d5e8d4;strokeColor=#82b366;" vertex="1" parent="1">
          <mxGeometry x="280" y="590" width="220" height="60" as="geometry" />
        </mxCell>
        <mxCell id="w8qs9DBUS7TFqiF7ya6J-37" value="" style="endArrow=classic;html=1;rounded=0;entryX=0.455;entryY=0;entryDx=0;entryDy=0;entryPerimeter=0;" edge="1" parent="1" target="w8qs9DBUS7TFqiF7ya6J-13">
          <mxGeometry width="50" height="50" relative="1" as="geometry">
            <mxPoint x="380" y="820" as="sourcePoint" />
            <mxPoint x="430" y="770" as="targetPoint" />
          </mxGeometry>
        </mxCell>
        <mxCell id="w8qs9DBUS7TFqiF7ya6J-38" value="" style="endArrow=classic;html=1;rounded=0;entryX=0.542;entryY=0;entryDx=0;entryDy=0;entryPerimeter=0;" edge="1" parent="1" target="w8qs9DBUS7TFqiF7ya6J-11">
          <mxGeometry width="50" height="50" relative="1" as="geometry">
            <mxPoint x="390" y="960" as="sourcePoint" />
            <mxPoint x="440" y="910" as="targetPoint" />
          </mxGeometry>
        </mxCell>
        <mxCell id="w8qs9DBUS7TFqiF7ya6J-39" value="" style="endArrow=classic;html=1;rounded=0;" edge="1" parent="1">
          <mxGeometry width="50" height="50" relative="1" as="geometry">
            <mxPoint x="390" y="560" as="sourcePoint" />
            <mxPoint x="730" y="560" as="targetPoint" />
            <Array as="points">
              <mxPoint x="490" y="560" />
            </Array>
          </mxGeometry>
        </mxCell>
        <mxCell id="w8qs9DBUS7TFqiF7ya6J-40" value="" style="endArrow=classic;html=1;rounded=0;" edge="1" parent="1">
          <mxGeometry width="50" height="50" relative="1" as="geometry">
            <mxPoint x="720" y="560" as="sourcePoint" />
            <mxPoint x="720" y="140" as="targetPoint" />
          </mxGeometry>
        </mxCell>
        <mxCell id="w8qs9DBUS7TFqiF7ya6J-41" value="" style="endArrow=classic;html=1;rounded=0;" edge="1" parent="1">
          <mxGeometry width="50" height="50" relative="1" as="geometry">
            <mxPoint x="720" y="140" as="sourcePoint" />
            <mxPoint x="400" y="140" as="targetPoint" />
          </mxGeometry>
        </mxCell>
        <mxCell id="w8qs9DBUS7TFqiF7ya6J-42" value="NO" style="text;html=1;align=center;verticalAlign=middle;whiteSpace=wrap;rounded=0;" vertex="1" parent="1">
          <mxGeometry x="520" y="530" width="60" height="20" as="geometry" />
        </mxCell>
        <mxCell id="w8qs9DBUS7TFqiF7ya6J-43" value="YES" style="text;html=1;align=center;verticalAlign=middle;whiteSpace=wrap;rounded=0;" vertex="1" parent="1">
          <mxGeometry x="300" y="540" width="60" height="30" as="geometry" />
        </mxCell>
      </root>
    </mxGraphModel>
  </diagram>
</mxfile>
